<svg id="visual" viewBox="0 0 900 600" xmlns="http://www.w3.org/2000/svg"
    xmlns:xlink="http://www.w3.org/1999/xlink" version="1.1">
    <path
        d="M0 85L13.7 86C27.3 87 54.7 89 82 81C109.3 73 136.7 55 163.8 57C191 59 218 81 245.2 92C272.3 103 299.7 103 327 101C354.3 99 381.7 95 409 90C436.3 85 463.7 79 491 76C518.3 73 545.7 73 573 75C600.3 77 627.7 81 654.8 84C682 87 709 89 736.2 91C763.3 93 790.7 95 818 87C845.3 79 872.7 61 886.3 52L900 43L900 0L886.3 0C872.7 0 845.3 0 818 0C790.7 0 763.3 0 736.2 0C709 0 682 0 654.8 0C627.7 0 600.3 0 573 0C545.7 0 518.3 0 491 0C463.7 0 436.3 0 409 0C381.7 0 354.3 0 327 0C299.7 0 272.3 0 245.2 0C218 0 191 0 163.8 0C136.7 0 109.3 0 82 0C54.7 0 27.3 0 13.7 0L0 0Z"
        fill="#010b14"></path>
    <path
        d="M0 169L13.7 163C27.3 157 54.7 145 82 136C109.3 127 136.7 121 163.8 122C191 123 218 131 245.2 143C272.3 155 299.7 171 327 172C354.3 173 381.7 159 409 158C436.3 157 463.7 169 491 170C518.3 171 545.7 161 573 164C600.3 167 627.7 183 654.8 193C682 203 709 207 736.2 200C763.3 193 790.7 175 818 168C845.3 161 872.7 165 886.3 167L900 169L900 41L886.3 50C872.7 59 845.3 77 818 85C790.7 93 763.3 91 736.2 89C709 87 682 85 654.8 82C627.7 79 600.3 75 573 73C545.7 71 518.3 71 491 74C463.7 77 436.3 83 409 88C381.7 93 354.3 97 327 99C299.7 101 272.3 101 245.2 90C218 79 191 57 163.8 55C136.7 53 109.3 71 82 79C54.7 87 27.3 85 13.7 84L0 83Z"
        fill="#00193b"></path>
    <path
        d="M0 319L13.7 307C27.3 295 54.7 271 82 266C109.3 261 136.7 275 163.8 277C191 279 218 269 245.2 264C272.3 259 299.7 259 327 261C354.3 263 381.7 267 409 275C436.3 283 463.7 295 491 300C518.3 305 545.7 303 573 297C600.3 291 627.7 281 654.8 287C682 293 709 315 736.2 309C763.3 303 790.7 269 818 257C845.3 245 872.7 255 886.3 260L900 265L900 167L886.3 165C872.7 163 845.3 159 818 166C790.7 173 763.3 191 736.2 198C709 205 682 201 654.8 191C627.7 181 600.3 165 573 162C545.7 159 518.3 169 491 168C463.7 167 436.3 155 409 156C381.7 157 354.3 171 327 170C299.7 169 272.3 153 245.2 141C218 129 191 121 163.8 120C136.7 119 109.3 125 82 134C54.7 143 27.3 155 13.7 161L0 167Z"
        fill="#001e60"></path>
    <path
        d="M0 427L13.7 429C27.3 431 54.7 435 82 437C109.3 439 136.7 439 163.8 437C191 435 218 431 245.2 417C272.3 403 299.7 379 327 392C354.3 405 381.7 455 409 473C436.3 491 463.7 477 491 465C518.3 453 545.7 443 573 437C600.3 431 627.7 429 654.8 441C682 453 709 479 736.2 490C763.3 501 790.7 497 818 498C845.3 499 872.7 505 886.3 508L900 511L900 263L886.3 258C872.7 253 845.3 243 818 255C790.7 267 763.3 301 736.2 307C709 313 682 291 654.8 285C627.7 279 600.3 289 573 295C545.7 301 518.3 303 491 298C463.7 293 436.3 281 409 273C381.7 265 354.3 261 327 259C299.7 257 272.3 257 245.2 262C218 267 191 277 163.8 275C136.7 273 109.3 259 82 264C54.7 269 27.3 293 13.7 305L0 317Z"
        fill="#001a81"></path>
    <path
        d="M0 601L13.7 601C27.3 601 54.7 601 82 601C109.3 601 136.7 601 163.8 601C191 601 218 601 245.2 601C272.3 601 299.7 601 327 601C354.3 601 381.7 601 409 601C436.3 601 463.7 601 491 601C518.3 601 545.7 601 573 601C600.3 601 627.7 601 654.8 601C682 601 709 601 736.2 601C763.3 601 790.7 601 818 601C845.3 601 872.7 601 886.3 601L900 601L900 509L886.3 506C872.7 503 845.3 497 818 496C790.7 495 763.3 499 736.2 488C709 477 682 451 654.8 439C627.7 427 600.3 429 573 435C545.7 441 518.3 451 491 463C463.7 475 436.3 489 409 471C381.7 453 354.3 403 327 390C299.7 377 272.3 401 245.2 415C218 429 191 433 163.8 435C136.7 437 109.3 437 82 435C54.7 433 27.3 429 13.7 427L0 425Z"
        fill="#1205a0"></path>
</svg>